; NON-PLATED HOLES START AT T1
; THROUGH (PLATED) HOLES START AT T100
M48
INCH
T100C0.035000
T101C0.015748
T102C0.025000
T103C0.032000
T104C0.038000
T105C0.040000
T106C0.038194
%
T100
X004169Y013048
X025169Y009048
X008169Y009048
X008169Y005048
X005169Y013048
X030169Y009048
X026610Y014819
X001169Y017048
X012169Y014819
X005169Y017048
X018157Y014812
X035169Y014819
X014169Y005048
X031169Y011048
X015598Y014812
X014169Y009048
X015598Y013041
X004169Y017048
X030169Y005048
X031169Y015048
X032610Y013048
X029169Y013048
X018157Y013041
X029169Y014819
X009610Y014819
X026610Y013048
X001169Y013048
X012169Y013048
X035169Y013048
X025169Y005048
X009610Y013048
X032610Y014819
T101
X005169Y009048
X005169Y011048
X026169Y003048
X028169Y003048
X006169Y003048
X007169Y003048
X007169Y011048
X035169Y005048
X007169Y009048
X010169Y007048
T102
X002957Y019048
X004531Y019048
X002169Y019048
X003743Y019048
T103
X001573Y008451
X008382Y001048
X001573Y006876
X001573Y006089
X001573Y007663
X007594Y001048
X009169Y001048
X006807Y001048
T104
X025169Y002048
X031169Y002048
X024169Y002048
X032169Y002048
X023169Y002048
X035169Y018048
X030169Y002048
X033169Y018048
X034169Y018048
T105
X027169Y004048
X028547Y004048
T106
X037169Y009048
X038169Y017048
X037169Y012048
X014569Y020048
X016169Y001048
X038169Y019048
X036169Y001048
X029169Y001048
X020169Y020048
X027169Y001048
X038169Y013048
X013169Y001048
X011569Y020048
X038169Y012048
X032169Y001048
X038169Y006048
X025169Y001048
X037169Y019048
X038169Y010048
X015169Y001048
X029169Y020048
X016569Y020048
X037169Y013048
X018169Y001048
X037169Y016048
X008569Y020048
X028169Y020048
X038169Y009048
X031169Y020048
X022169Y020048
X032169Y020048
X015569Y020048
X024169Y020048
X038169Y004048
X037169Y020048
X034169Y020048
X025169Y020048
X014169Y001048
X019169Y020048
X023169Y001048
X033169Y020048
X011169Y001048
X027169Y020048
X038169Y018048
X037169Y014048
X038169Y020048
X021169Y020048
X007569Y020048
X038169Y015048
X024169Y001048
X031169Y001048
X038169Y016048
X037169Y008048
X018169Y020048
X038169Y003048
X038169Y005048
X021169Y001048
X030169Y020048
X037169Y010048
X037169Y006048
X023169Y020048
X020169Y001048
X038169Y008048
X034169Y001048
X037169Y017048
X037169Y003048
X009569Y020048
X010569Y020048
X037169Y011048
X037169Y015048
X013569Y020048
X037169Y005048
X026169Y001048
X035169Y001048
X037169Y018048
X038169Y007048
X038169Y014048
X037169Y004048
X037169Y007048
X017169Y001048
X033169Y001048
X012169Y001048
X030169Y001048
X012569Y020048
X038169Y011048
X022169Y001048
T00
M30
