G04 MADE WITH FRITZING*
G04 WWW.FRITZING.ORG*
G04 DOUBLE SIDED*
G04 HOLES PLATED*
G04 CONTOUR ON CENTER OF CONTOUR VECTOR*
%ASAXBY*%
%FSLAX23Y23*%
%MOIN*%
%OFA0B0*%
%SFA1.0B1.0*%
%ADD10C,0.082917*%
%ADD11C,0.085000*%
%ADD12C,0.088000*%
%ADD13C,0.049370*%
%ADD14C,0.090000*%
%ADD15C,0.069200*%
%ADD16C,0.075000*%
%ADD17R,0.088000X0.088000*%
%ADD18R,0.069200X0.069200*%
%ADD19C,0.030000*%
%LNMASK1*%
G90*
G70*
G54D10*
X3017Y105D03*
X1417Y105D03*
X3117Y105D03*
X3217Y105D03*
X3317Y105D03*
X3417Y105D03*
X3717Y1505D03*
X3517Y105D03*
X3617Y105D03*
X1457Y2005D03*
X2017Y105D03*
X2117Y105D03*
X2217Y105D03*
X2317Y105D03*
X3717Y705D03*
X2417Y105D03*
X2517Y105D03*
X2617Y105D03*
X2717Y105D03*
X2217Y2005D03*
X3717Y1905D03*
X3717Y1105D03*
X3717Y305D03*
X1057Y2005D03*
X1817Y105D03*
X1817Y2005D03*
X3717Y1705D03*
X3717Y1305D03*
X3717Y905D03*
X3417Y2005D03*
X3717Y505D03*
X3317Y2005D03*
X3217Y2005D03*
X3117Y2005D03*
X3017Y2005D03*
X2917Y2005D03*
X2817Y2005D03*
X2717Y2005D03*
X857Y2005D03*
X1257Y2005D03*
X1657Y2005D03*
X1217Y105D03*
X1617Y105D03*
X2417Y2005D03*
X2017Y2005D03*
X3717Y2005D03*
X3717Y1805D03*
X3717Y1605D03*
X3717Y1405D03*
X3717Y1205D03*
X3717Y1005D03*
X3717Y805D03*
X3717Y605D03*
X3717Y405D03*
X757Y2005D03*
X957Y2005D03*
X1157Y2005D03*
X1357Y2005D03*
X1557Y2005D03*
X1117Y105D03*
X1317Y105D03*
X1517Y105D03*
X1717Y105D03*
X2517Y2005D03*
X2317Y2005D03*
X2117Y2005D03*
X1917Y2005D03*
X3817Y2005D03*
X3817Y1905D03*
X3817Y1805D03*
X3817Y1705D03*
X3817Y1605D03*
X3817Y1505D03*
X3817Y1405D03*
X3817Y1305D03*
X3817Y1205D03*
X3817Y1105D03*
X3817Y1005D03*
X3817Y905D03*
X3817Y805D03*
X3817Y705D03*
X3817Y605D03*
X3817Y505D03*
X3817Y405D03*
X3817Y305D03*
X2917Y105D03*
G54D11*
X117Y1305D03*
X117Y1705D03*
X417Y1305D03*
X417Y1705D03*
X517Y1305D03*
X517Y1705D03*
X817Y505D03*
X817Y905D03*
G54D12*
X3317Y1805D03*
X3417Y1805D03*
X3517Y1805D03*
G54D11*
X3117Y1105D03*
X3117Y1505D03*
X1816Y1304D03*
X1560Y1304D03*
X1816Y1481D03*
X1560Y1481D03*
G54D13*
X3517Y505D03*
G54D14*
X2717Y405D03*
X2855Y405D03*
G54D12*
X2317Y205D03*
X2417Y205D03*
X2517Y205D03*
X3017Y205D03*
X3117Y205D03*
X3217Y205D03*
G54D13*
X2617Y305D03*
X2817Y305D03*
X1017Y705D03*
X517Y1105D03*
X517Y905D03*
X717Y1105D03*
X717Y905D03*
G54D15*
X681Y105D03*
X917Y105D03*
X838Y105D03*
X759Y105D03*
X157Y845D03*
X157Y609D03*
X157Y688D03*
X157Y766D03*
G54D13*
X617Y305D03*
X717Y305D03*
G54D11*
X1217Y1305D03*
X961Y1305D03*
X1217Y1482D03*
X961Y1482D03*
X2917Y1305D03*
X2661Y1305D03*
X2917Y1482D03*
X2661Y1482D03*
X3517Y1305D03*
X3261Y1305D03*
X3517Y1482D03*
X3261Y1482D03*
X1417Y505D03*
X1417Y905D03*
X2517Y505D03*
X2517Y905D03*
X3017Y505D03*
X3017Y905D03*
G54D16*
X217Y1905D03*
X296Y1905D03*
X374Y1905D03*
X453Y1905D03*
G54D17*
X3317Y1805D03*
X2317Y205D03*
X3017Y205D03*
G54D18*
X681Y105D03*
X157Y845D03*
G54D19*
G36*
X2687Y435D02*
X2747Y435D01*
X2747Y375D01*
X2687Y375D01*
X2687Y435D01*
G37*
D02*
G04 End of Mask1*
M02*